<svg width="23" height="25" viewBox="0 0 23 25" fill="none" xmlns="http://www.w3.org/2000/svg">
<g clip-path="url(#clip0_1_31)">
<path d="M8.38275 19.7865C8.38275 19.7865 8.46941 19.8732 8.64274 20.0465C8.81606 20.2198 8.90273 20.5437 8.90273 21.0181C8.90273 21.4924 8.7294 21.9029 8.38275 22.2496C8.0361 22.5962 7.62559 22.7696 7.15122 22.7696C6.67686 22.7696 6.26635 22.5962 5.9197 22.2496C5.57304 21.9029 5.39972 21.4924 5.39972 21.0181C5.39972 20.5437 5.57304 20.1332 5.9197 19.7865C6.26635 19.4399 6.67686 19.2666 7.15122 19.2666C7.62559 19.2666 8.0361 19.4399 8.38275 19.7865ZM20.6433 19.7865C20.6433 19.7865 20.7299 19.8732 20.9033 20.0465C21.0766 20.2198 21.1633 20.5437 21.1633 21.0181C21.1633 21.4924 20.9899 21.9029 20.6433 22.2496C20.2966 22.5962 19.8861 22.7696 19.4118 22.7696C18.9374 22.7696 18.5269 22.5962 18.1802 22.2496C17.8336 21.9029 17.6603 21.4924 17.6603 21.0181C17.6603 20.5437 17.8336 20.1332 18.1802 19.7865C18.5269 19.4399 18.9374 19.2666 19.4118 19.2666C19.8861 19.2666 20.2966 19.4399 20.6433 19.7865ZM22.9148 6.13026V13.1363C22.9148 13.3552 22.8395 13.5491 22.689 13.7178C22.5385 13.8866 22.3537 13.9847 22.1348 14.012L7.84909 15.6814C7.96768 16.2288 8.02698 16.5481 8.02698 16.6393C8.02698 16.7853 7.91751 17.0772 7.69857 17.515H20.2875C20.5247 17.515 20.7299 17.6017 20.9033 17.775C21.0766 17.9484 21.1633 18.1536 21.1633 18.3908C21.1633 18.628 21.0766 18.8332 20.9033 19.0066C20.7299 19.1799 20.5247 19.2666 20.2875 19.2666H6.27547C6.03829 19.2666 5.83303 19.1799 5.65971 19.0066C5.48638 18.8332 5.39972 18.628 5.39972 18.3908C5.39972 18.2905 5.43621 18.1468 5.50919 17.9598C5.58217 17.7728 5.65515 17.6086 5.72813 17.4672C5.8011 17.3258 5.89917 17.1433 6.02232 16.9198C6.14548 16.6963 6.21618 16.5618 6.23442 16.5161L3.81242 5.25451H1.02096C0.783772 5.25451 0.578518 5.16785 0.405192 4.99452C0.231866 4.82119 0.145203 4.61594 0.145203 4.37876C0.145203 4.14157 0.231866 3.93632 0.405192 3.76299C0.578518 3.58967 0.783772 3.503 1.02096 3.503H4.52397C4.66992 3.503 4.79992 3.53265 4.91395 3.59195C5.02798 3.65124 5.11692 3.72194 5.18078 3.80404C5.24464 3.88615 5.30393 3.9979 5.35867 4.13929C5.4134 4.28069 5.44989 4.39928 5.46814 4.49507C5.48638 4.59085 5.51147 4.72541 5.5434 4.89874C5.57532 5.07206 5.59585 5.19065 5.60497 5.25451H22.039C22.2762 5.25451 22.4815 5.34117 22.6548 5.5145C22.8281 5.68782 22.9148 5.89308 22.9148 6.13026Z" fill="#555555"/>
</g>
<defs>
<clipPath id="clip0_1_31">
<rect width="22.94" height="25" fill="white" transform="matrix(1 0 0 -1 0.0599976 25)"/>
</clipPath>
</defs>
</svg>
