<svg width="14" height="14" viewBox="0 0 14 14" fill="none" xmlns="http://www.w3.org/2000/svg">
<g id="Icon" clip-path="url(#clip0_1_47)">
<path id="Vector" d="M8.00443 8.80076C8.00443 8.80076 8.17238 8.63282 8.50826 8.29693C8.84415 7.96104 9.0121 7.32056 9.0121 6.37547C9.0121 5.43039 8.67621 4.62196 8.00443 3.95019C7.33266 3.27841 6.52423 2.94252 5.57914 2.94252C4.63406 2.94252 3.82563 3.27841 3.15386 3.95019C2.48208 4.62196 2.1462 5.43039 2.1462 6.37547C2.1462 7.32056 2.48208 8.12899 3.15386 8.80076C3.82563 9.47254 4.63406 9.80842 5.57914 9.80842C6.52423 9.80842 7.33266 9.47254 8.00443 8.80076ZM12.9355 12.751C12.9355 13.0166 12.8384 13.2465 12.6443 13.4406C12.4502 13.6347 12.2203 13.7318 11.9546 13.7318C11.6788 13.7318 11.4489 13.6347 11.265 13.4406L8.63662 10.8199C7.72218 11.4534 6.70303 11.7701 5.57914 11.7701C4.84862 11.7701 4.15003 11.6283 3.48336 11.3448C2.81669 11.0613 2.24198 10.6782 1.75922 10.1954C1.27646 9.71264 0.893322 9.13793 0.609797 8.47126C0.326272 7.80459 0.184509 7.106 0.184509 6.37547C0.184509 5.64495 0.326272 4.94636 0.609797 4.27969C0.893322 3.61302 1.27646 3.03831 1.75922 2.55555C2.24198 2.07279 2.81669 1.68965 3.48336 1.40613C4.15003 1.1226 4.84862 0.980839 5.57914 0.980839C6.30967 0.980839 7.00826 1.1226 7.67493 1.40613C8.3416 1.68965 8.91631 2.07279 9.39907 2.55555C9.88183 3.03831 10.265 3.61302 10.5485 4.27969C10.832 4.94636 10.9738 5.64495 10.9738 6.37547C10.9738 7.49936 10.6571 8.51851 10.0236 9.43295L12.6519 12.0613C12.841 12.2503 12.9355 12.4802 12.9355 12.751Z" fill="#333333"/>
</g>
<defs>
<clipPath id="clip0_1_47">
<rect width="13" height="14" fill="white" transform="matrix(1 0 0 -1 0.0599976 14)"/>
</clipPath>
</defs>
</svg>
